<svg xmlns="http://www.w3.org/2000/svg" viewBox="0 0 1120 690">
  <rect width="1120" height="690" rx="30" fill="#17171a"/>
  <text x="56" y="66" fill="#fff" font-family="Inter,Segoe UI,Arial,sans-serif" font-size="24" font-weight="750">Dark + light. Same controls.</text>

  <g transform="translate(70 104)">
    <rect width="430" height="520" rx="20" fill="#0b0b0c" stroke="#2b2b30" stroke-width="2"/>
    <rect x="25" y="26" width="44" height="44" rx="11" fill="#111114"/>
    <path d="M37 36V59L54 47.5Z" fill="#fff"/>
    <path d="M55 39 63 47 55 55" fill="none" stroke="#ff0033" stroke-width="4" stroke-linecap="round"/>
    <text x="84" y="42" fill="#ff0033" font-family="Inter,Segoe UI,Arial,sans-serif" font-size="8" font-weight="800" letter-spacing="1.6">YOUTUBE CLEANUP</text>
    <text x="84" y="61" fill="#fff" font-family="Inter,Segoe UI,Arial,sans-serif" font-size="18" font-weight="800">YT Autoskipper</text>
    <rect x="355" y="34" width="48" height="27" rx="14" fill="#ff0033"/>
    <circle cx="390" cy="47.5" r="9" fill="#fff"/>
    <path d="M25 90H405" stroke="#29292e"/>
    <text x="25" y="124" fill="#fff" font-family="Inter,Segoe UI,Arial,sans-serif" font-size="10" font-weight="800" letter-spacing="1">PROTECTION</text>
    <text x="354" y="124" fill="#8f8f98" font-family="Inter,Segoe UI,Arial,sans-serif" font-size="8" font-weight="700" letter-spacing="0.6">GLOBAL</text>
    <text x="25" y="159" fill="#fff" font-family="Inter,Segoe UI,Arial,sans-serif" font-size="13" font-weight="700">Ad Block</text>
    <text x="25" y="177" fill="#8f8f98" font-family="Inter,Segoe UI,Arial,sans-serif" font-size="9">AdGuard Base filter, global by default</text>
    <rect x="360" y="151" width="42" height="23" rx="12" fill="#ff0033"/>
    <circle cx="391" cy="162.5" r="7" fill="#fff"/>
    <path d="M25 198H405M25 244H405" stroke="#29292e"/>
    <text x="25" y="227" fill="#fff" font-family="Inter,Segoe UI,Arial,sans-serif" font-size="12">Theme</text>
    <rect x="312" y="208" width="90" height="27" rx="6" fill="#18181b" stroke="#333338"/>
    <text x="326" y="226" fill="#fff" font-family="Inter,Segoe UI,Arial,sans-serif" font-size="10">System</text>
    <text x="25" y="286" fill="#fff" font-family="Inter,Segoe UI,Arial,sans-serif" font-size="10" font-weight="800" letter-spacing="1">SEGMENT BEHAVIOR</text>
    <g fill="#fff" font-family="Inter,Segoe UI,Arial,sans-serif" font-size="11">
      <text x="44" y="326">Sponsor</text><text x="44" y="368">Self promotion</text><text x="44" y="410">Intro</text><text x="44" y="452">Non music</text>
    </g>
    <circle cx="29" cy="322" r="5" fill="#00d400"/><circle cx="29" cy="364" r="5" fill="#ffff00"/><circle cx="29" cy="406" r="5" fill="#00ffff"/><circle cx="29" cy="448" r="5" fill="#ff9900"/>
    <g fill="#18181b" stroke="#333338"><rect x="302" y="308" width="100" height="27" rx="6"/><rect x="302" y="350" width="100" height="27" rx="6"/><rect x="302" y="392" width="100" height="27" rx="6"/><rect x="302" y="434" width="100" height="27" rx="6"/></g>
    <g fill="#fff" font-family="Inter,Segoe UI,Arial,sans-serif" font-size="9"><text x="318" y="326">Auto skip</text><text x="318" y="368">Auto skip</text><text x="318" y="410">Show button</text><text x="318" y="452">Show button</text></g>
  </g>

  <g transform="translate(620 104)">
    <rect width="430" height="520" rx="20" fill="#fff" stroke="#dedee2" stroke-width="2"/>
    <rect x="25" y="26" width="44" height="44" rx="11" fill="#f2f2f4"/>
    <path d="M37 36V59L54 47.5Z" fill="#111114"/>
    <path d="M55 39 63 47 55 55" fill="none" stroke="#ff0033" stroke-width="4" stroke-linecap="round"/>
    <text x="84" y="42" fill="#ff0033" font-family="Inter,Segoe UI,Arial,sans-serif" font-size="8" font-weight="800" letter-spacing="1.6">YOUTUBE CLEANUP</text>
    <text x="84" y="61" fill="#111114" font-family="Inter,Segoe UI,Arial,sans-serif" font-size="18" font-weight="800">YT Autoskipper</text>
    <rect x="355" y="34" width="48" height="27" rx="14" fill="#ff0033"/>
    <circle cx="390" cy="47.5" r="9" fill="#fff"/>
    <path d="M25 90H405" stroke="#dedee2"/>
    <text x="25" y="124" fill="#111114" font-family="Inter,Segoe UI,Arial,sans-serif" font-size="10" font-weight="800" letter-spacing="1">PROTECTION</text>
    <text x="354" y="124" fill="#73737a" font-family="Inter,Segoe UI,Arial,sans-serif" font-size="8" font-weight="700" letter-spacing="0.6">GLOBAL</text>
    <text x="25" y="159" fill="#111114" font-family="Inter,Segoe UI,Arial,sans-serif" font-size="13" font-weight="700">Ad Block</text>
    <text x="25" y="177" fill="#73737a" font-family="Inter,Segoe UI,Arial,sans-serif" font-size="9">AdGuard Base filter, global by default</text>
    <rect x="360" y="151" width="42" height="23" rx="12" fill="#ff0033"/>
    <circle cx="391" cy="162.5" r="7" fill="#fff"/>
    <path d="M25 198H405M25 244H405" stroke="#dedee2"/>
    <text x="25" y="227" fill="#111114" font-family="Inter,Segoe UI,Arial,sans-serif" font-size="12">Theme</text>
    <rect x="312" y="208" width="90" height="27" rx="6" fill="#fff" stroke="#d8d8dc"/>
    <text x="326" y="226" fill="#111114" font-family="Inter,Segoe UI,Arial,sans-serif" font-size="10">Light</text>
    <text x="25" y="286" fill="#111114" font-family="Inter,Segoe UI,Arial,sans-serif" font-size="10" font-weight="800" letter-spacing="1">SEGMENT BEHAVIOR</text>
    <g fill="#111114" font-family="Inter,Segoe UI,Arial,sans-serif" font-size="11"><text x="44" y="326">Sponsor</text><text x="44" y="368">Self promotion</text><text x="44" y="410">Intro</text><text x="44" y="452">Non music</text></g>
    <circle cx="29" cy="322" r="5" fill="#00a900"/><circle cx="29" cy="364" r="5" fill="#d1b600"/><circle cx="29" cy="406" r="5" fill="#00a5a5"/><circle cx="29" cy="448" r="5" fill="#e17f00"/>
    <g fill="#fff" stroke="#d8d8dc"><rect x="302" y="308" width="100" height="27" rx="6"/><rect x="302" y="350" width="100" height="27" rx="6"/><rect x="302" y="392" width="100" height="27" rx="6"/><rect x="302" y="434" width="100" height="27" rx="6"/></g>
    <g fill="#111114" font-family="Inter,Segoe UI,Arial,sans-serif" font-size="9"><text x="318" y="326">Auto skip</text><text x="318" y="368">Auto skip</text><text x="318" y="410">Show button</text><text x="318" y="452">Show button</text></g>
  </g>
</svg>